<svg width="1164" height="814" viewBox="0 0 1164 814" fill="none" xmlns="http://www.w3.org/2000/svg">
<path d="M945.151 0H247.966C215.879 0 189.867 26.0117 189.867 58.0988V755.284C189.867 787.371 215.879 813.383 247.966 813.383H945.151C977.238 813.383 1003.25 787.371 1003.25 755.284V58.0988C1003.25 26.0117 977.238 0 945.151 0Z" fill="#F4F6F8"/>
<g filter="url(#filter0_d_770_6911)">
<path d="M847.681 56.9368H63.8887C47.8563 56.9368 34.8594 69.9426 34.8594 85.9862V231.233C34.8594 247.277 47.8563 260.282 63.8887 260.282H847.681C863.714 260.282 876.711 247.277 876.711 231.233V85.9862C876.711 69.9426 863.714 56.9368 847.681 56.9368Z" fill="white"/>
</g>
<path d="M435.464 103.416H284.511C274.892 103.416 267.094 111.22 267.094 120.846C267.094 130.472 274.892 138.275 284.511 138.275H435.464C445.084 138.275 452.882 130.472 452.882 120.846C452.882 111.22 445.084 103.416 435.464 103.416Z" fill="#F4F6F8"/>
<path d="M539.97 178.944H284.511C274.892 178.944 267.094 186.748 267.094 196.374C267.094 206 274.892 213.804 284.511 213.804H539.97C549.589 213.804 557.387 206 557.387 196.374C557.387 186.748 549.589 178.944 539.97 178.944Z" fill="#DCE3F1"/>
<path d="M195.675 75.5283H85.2877C69.2441 75.5283 56.2383 88.5342 56.2383 104.578V214.965C56.2383 231.009 69.2441 244.015 85.2877 244.015H195.675C211.719 244.015 224.725 231.009 224.725 214.965V104.578C224.725 88.5342 211.719 75.5283 195.675 75.5283Z" fill="url(#paint0_linear_770_6911)"/>
<path d="M127.245 178.828H138.865L138.993 174.354C138.993 168.475 142.699 166.941 147.94 165.279C153.197 163.784 157.824 160.618 161.121 156.259C164.419 151.901 166.208 146.587 166.218 141.122C166.333 137.785 165.754 134.461 164.518 131.359C163.282 128.257 161.415 125.446 159.036 123.103C156.657 120.761 153.818 118.937 150.698 117.748C147.578 116.56 144.245 116.032 140.91 116.198C137.386 116.121 133.883 116.761 130.613 118.078C127.344 119.396 124.376 121.364 121.89 123.863C119.404 126.362 117.451 129.34 116.151 132.617C114.85 135.893 114.229 139.399 114.324 142.923H126.339C126.293 140.977 126.636 139.042 127.348 137.231C128.06 135.42 129.126 133.769 130.485 132.375C131.843 130.981 133.465 129.872 135.258 129.114C137.05 128.355 138.975 127.962 140.922 127.957C142.677 127.855 144.433 128.132 146.071 128.77C147.71 129.407 149.192 130.39 150.416 131.651C151.641 132.912 152.58 134.422 153.169 136.078C153.758 137.735 153.984 139.498 153.831 141.25C153.754 144.084 152.768 146.819 151.019 149.051C149.27 151.283 146.851 152.895 144.117 153.648L139.899 155.321C135.769 156.316 132.164 158.826 129.797 162.353C127.43 165.88 126.473 170.167 127.117 174.366L127.245 178.828ZM132.997 206.448C134.135 206.489 135.269 206.301 136.333 205.895C137.397 205.489 138.369 204.875 139.191 204.087C140.013 203.3 140.669 202.355 141.12 201.31C141.571 200.264 141.808 199.139 141.816 198.001C141.806 196.863 141.568 195.739 141.117 194.695C140.665 193.651 140.009 192.708 139.187 191.922C138.365 191.135 137.393 190.522 136.33 190.117C135.267 189.712 134.134 189.524 132.997 189.565C131.86 189.524 130.727 189.712 129.664 190.117C128.6 190.522 127.629 191.135 126.807 191.922C125.985 192.708 125.329 193.651 124.877 194.695C124.426 195.739 124.188 196.863 124.178 198.001C124.186 199.139 124.423 200.264 124.874 201.31C125.325 202.355 125.981 203.3 126.803 204.087C127.625 204.875 128.597 205.489 129.661 205.895C130.725 206.301 131.859 206.489 132.997 206.448Z" fill="white"/>
<g filter="url(#filter1_d_770_6911)">
<path d="M1099.83 305.019H316.037C308.338 305.019 300.955 308.079 295.511 313.527C290.066 318.975 287.008 326.364 287.008 334.068V479.315C287.008 487.019 290.066 494.408 295.511 499.856C300.955 505.304 308.338 508.364 316.037 508.364H1099.83C1107.53 508.364 1114.91 505.304 1120.36 499.856C1125.8 494.408 1128.86 487.019 1128.86 479.315V334.068C1128.86 326.364 1125.8 318.975 1120.36 313.527C1114.91 308.079 1107.53 305.019 1099.83 305.019V305.019Z" fill="white"/>
</g>
<path d="M728.255 351.497H879.207C888.827 351.497 896.625 359.301 896.625 368.927C896.625 378.553 888.827 386.356 879.207 386.356H728.255C718.635 386.356 710.837 378.553 710.837 368.927C710.837 359.301 718.635 351.497 728.255 351.497Z" fill="#F4F6F8"/>
<path d="M623.749 427.025H879.207C888.827 427.025 896.625 434.829 896.625 444.455C896.625 454.081 888.827 461.885 879.207 461.885H623.749C614.13 461.885 606.331 454.081 606.331 444.455C606.331 434.829 614.13 427.025 623.749 427.025Z" fill="#DCE3F1"/>
<path d="M1082.41 322.448H972.1C956.067 322.448 943.07 335.454 943.07 351.497V461.885C943.07 477.928 956.067 490.934 972.1 490.934H1082.41C1098.44 490.934 1111.44 477.928 1111.44 461.885V351.497C1111.44 335.454 1098.44 322.448 1082.41 322.448Z" fill="url(#paint1_linear_770_6911)"/>
<path d="M1014.03 425.747H1025.64L1025.77 421.274C1025.77 415.394 1029.47 413.86 1034.71 412.199C1039.96 410.703 1044.59 407.537 1047.88 403.179C1051.18 398.82 1052.97 393.507 1052.97 388.041C1053.09 384.704 1052.51 381.38 1051.28 378.278C1050.04 375.177 1048.18 372.365 1045.8 370.023C1043.42 367.68 1040.58 365.856 1037.47 364.667C1034.35 363.479 1031.02 362.951 1027.68 363.117C1024.16 363.04 1020.66 363.68 1017.39 364.997C1014.13 366.315 1011.16 368.283 1008.68 370.782C1006.19 373.281 1004.24 376.259 1002.94 379.536C1001.64 382.812 1001.02 386.318 1001.12 389.842H1013.12C1013.08 387.897 1013.42 385.961 1014.13 384.15C1014.84 382.339 1015.91 380.688 1017.27 379.294C1018.62 377.9 1020.25 376.791 1022.04 376.033C1023.83 375.274 1025.75 374.881 1027.7 374.876C1029.45 374.774 1031.21 375.051 1032.84 375.689C1034.48 376.326 1035.96 377.309 1037.18 378.57C1038.41 379.831 1039.35 381.341 1039.94 382.998C1040.52 384.654 1040.75 386.418 1040.6 388.169C1040.52 391.004 1039.53 393.738 1037.79 395.97C1036.04 398.203 1033.62 399.814 1030.89 400.567L1026.67 402.24C1022.55 403.235 1018.94 405.745 1016.58 409.272C1014.21 412.799 1013.26 417.087 1013.9 421.285L1014.03 425.747ZM1019.78 453.367C1020.91 453.408 1022.05 453.22 1023.11 452.814C1024.17 452.409 1025.14 451.794 1025.97 451.006C1026.79 450.219 1027.44 449.274 1027.89 448.229C1028.35 447.184 1028.58 446.058 1028.59 444.92C1028.58 443.782 1028.34 442.658 1027.89 441.614C1027.44 440.57 1026.78 439.627 1025.96 438.841C1025.14 438.055 1024.17 437.441 1023.11 437.036C1022.05 436.631 1020.91 436.443 1019.78 436.484C1018.64 436.443 1017.51 436.631 1016.45 437.036C1015.38 437.441 1014.41 438.055 1013.59 438.841C1012.77 439.627 1012.11 440.57 1011.66 441.614C1011.21 442.658 1010.97 443.782 1010.96 444.92C1010.97 446.058 1011.21 447.184 1011.66 448.229C1012.11 449.274 1012.77 450.219 1013.59 451.006C1014.41 451.794 1015.38 452.409 1016.44 452.814C1017.51 453.22 1018.64 453.408 1019.78 453.367Z" fill="white"/>
<g filter="url(#filter2_d_770_6911)">
<path d="M63.8887 557.167H847.681C855.38 557.167 862.764 560.228 868.208 565.676C873.652 571.124 876.711 578.512 876.711 586.217V731.464C876.711 739.168 873.652 746.557 868.208 752.005C862.764 757.453 855.38 760.513 847.681 760.513H63.8887C56.1897 760.513 48.8059 757.453 43.3619 752.005C37.9178 746.557 34.8594 739.168 34.8594 731.464V586.217C34.8594 578.512 37.9178 571.124 43.3619 565.676C48.8059 560.228 56.1897 557.167 63.8887 557.167V557.167Z" fill="white"/>
</g>
<path d="M435.464 603.646H284.511C274.892 603.646 267.094 611.45 267.094 621.076C267.094 630.702 274.892 638.506 284.511 638.506H435.464C445.084 638.506 452.882 630.702 452.882 621.076C452.882 611.45 445.084 603.646 435.464 603.646Z" fill="#F4F6F8"/>
<path d="M539.97 679.175H284.511C274.892 679.175 267.094 686.978 267.094 696.604C267.094 706.231 274.892 714.034 284.511 714.034H539.97C549.589 714.034 557.387 706.231 557.387 696.604C557.387 686.978 549.589 679.175 539.97 679.175Z" fill="#DCE3F1"/>
<path d="M191.62 574.597H81.3087C65.2762 574.597 52.2793 587.603 52.2793 603.647V714.034C52.2793 730.078 65.2762 743.084 81.3087 743.084H191.62C207.653 743.084 220.65 730.078 220.65 714.034V603.647C220.65 587.603 207.653 574.597 191.62 574.597Z" fill="url(#paint2_linear_770_6911)"/>
<path d="M123.238 677.897H134.85L134.978 673.423C134.978 667.543 138.682 666.01 143.919 664.348C149.172 662.853 153.796 659.686 157.091 655.328C160.386 650.97 162.174 645.656 162.184 640.191C162.299 636.854 161.721 633.529 160.485 630.428C159.25 627.326 157.384 624.515 155.007 622.172C152.63 619.829 149.793 618.006 146.675 616.817C143.557 615.628 140.226 615.1 136.894 615.266C133.372 615.189 129.871 615.829 126.604 617.147C123.337 618.465 120.371 620.433 117.887 622.932C115.402 625.431 113.451 628.409 112.151 631.685C110.852 634.961 110.231 638.468 110.326 641.992H122.332C122.287 640.046 122.63 638.111 123.341 636.3C124.053 634.488 125.118 632.837 126.475 631.443C127.833 630.05 129.454 628.941 131.245 628.182C133.036 627.424 134.96 627.03 136.905 627.025C138.659 626.924 140.414 627.201 142.051 627.838C143.689 628.476 145.169 629.458 146.393 630.72C147.617 631.981 148.556 633.491 149.144 635.147C149.733 636.803 149.959 638.567 149.806 640.318C149.729 643.153 148.743 645.888 146.996 648.12C145.248 650.352 142.83 651.963 140.098 652.717L135.883 654.39C131.757 655.385 128.154 657.894 125.788 661.422C123.423 664.949 122.467 669.236 123.11 673.435L123.238 677.897ZM128.986 705.517C130.123 705.557 131.257 705.369 132.32 704.964C133.383 704.558 134.354 703.943 135.176 703.156C135.997 702.368 136.653 701.424 137.103 700.378C137.554 699.333 137.791 698.208 137.799 697.069C137.789 695.932 137.551 694.808 137.1 693.764C136.649 692.72 135.993 691.777 135.171 690.99C134.35 690.204 133.379 689.59 132.317 689.185C131.255 688.781 130.122 688.593 128.986 688.633C127.85 688.593 126.717 688.781 125.655 689.185C124.593 689.59 123.622 690.204 122.8 690.99C121.979 691.777 121.323 692.72 120.872 693.764C120.421 694.808 120.183 695.932 120.173 697.069C120.181 698.208 120.418 699.333 120.869 700.378C121.319 701.424 121.975 702.368 122.796 703.156C123.618 703.943 124.589 704.558 125.652 704.964C126.715 705.369 127.849 705.557 128.986 705.517Z" fill="white"/>
<defs>
<filter id="filter0_d_770_6911" x="0.000106812" y="39.5071" width="911.57" height="273.064" filterUnits="userSpaceOnUse" color-interpolation-filters="sRGB">
<feFlood flood-opacity="0" result="BackgroundImageFix"/>
<feColorMatrix in="SourceAlpha" type="matrix" values="0 0 0 0 0 0 0 0 0 0 0 0 0 0 0 0 0 0 127 0" result="hardAlpha"/>
<feOffset dy="17.4296"/>
<feGaussianBlur stdDeviation="17.4296"/>
<feColorMatrix type="matrix" values="0 0 0 0 0 0 0 0 0 0 0 0 0 0 0 0 0 0 0.161 0"/>
<feBlend mode="normal" in2="BackgroundImageFix" result="effect1_dropShadow_770_6911"/>
<feBlend mode="normal" in="SourceGraphic" in2="effect1_dropShadow_770_6911" result="shape"/>
</filter>
<filter id="filter1_d_770_6911" x="252.149" y="287.589" width="911.57" height="273.064" filterUnits="userSpaceOnUse" color-interpolation-filters="sRGB">
<feFlood flood-opacity="0" result="BackgroundImageFix"/>
<feColorMatrix in="SourceAlpha" type="matrix" values="0 0 0 0 0 0 0 0 0 0 0 0 0 0 0 0 0 0 127 0" result="hardAlpha"/>
<feOffset dy="17.4296"/>
<feGaussianBlur stdDeviation="17.4296"/>
<feColorMatrix type="matrix" values="0 0 0 0 0 0 0 0 0 0 0 0 0 0 0 0 0 0 0.161 0"/>
<feBlend mode="normal" in2="BackgroundImageFix" result="effect1_dropShadow_770_6911"/>
<feBlend mode="normal" in="SourceGraphic" in2="effect1_dropShadow_770_6911" result="shape"/>
</filter>
<filter id="filter2_d_770_6911" x="0.000106812" y="539.738" width="911.57" height="273.064" filterUnits="userSpaceOnUse" color-interpolation-filters="sRGB">
<feFlood flood-opacity="0" result="BackgroundImageFix"/>
<feColorMatrix in="SourceAlpha" type="matrix" values="0 0 0 0 0 0 0 0 0 0 0 0 0 0 0 0 0 0 127 0" result="hardAlpha"/>
<feOffset dy="17.4296"/>
<feGaussianBlur stdDeviation="17.4296"/>
<feColorMatrix type="matrix" values="0 0 0 0 0 0 0 0 0 0 0 0 0 0 0 0 0 0 0.161 0"/>
<feBlend mode="normal" in2="BackgroundImageFix" result="effect1_dropShadow_770_6911"/>
<feBlend mode="normal" in="SourceGraphic" in2="effect1_dropShadow_770_6911" result="shape"/>
</filter>
<linearGradient id="paint0_linear_770_6911" x1="31.4036" y1="75.5284" x2="232.742" y2="86.8557" gradientUnits="userSpaceOnUse">
<stop stop-color="#FF7000"/>
<stop offset="0.9999" stop-color="#E2985E"/>
<stop offset="1" stop-color="#E2995F"/>
</linearGradient>
<linearGradient id="paint1_linear_770_6911" x1="918.253" y1="322.448" x2="1119.45" y2="333.76" gradientUnits="userSpaceOnUse">
<stop stop-color="#FF7000"/>
<stop offset="0.9999" stop-color="#E2985E"/>
<stop offset="1" stop-color="#E2995F"/>
</linearGradient>
<linearGradient id="paint2_linear_770_6911" x1="27.4617" y1="574.597" x2="228.662" y2="585.909" gradientUnits="userSpaceOnUse">
<stop stop-color="#FF7000"/>
<stop offset="0.9999" stop-color="#E2985E"/>
<stop offset="1" stop-color="#E2995F"/>
</linearGradient>
</defs>
</svg>
