<svg width="1251" height="875" viewBox="0 0 1251 875" fill="none" xmlns="http://www.w3.org/2000/svg">
<path d="M1015.99 0H266.551C232.059 0 204.098 27.9614 204.098 62.4535V811.896C204.098 846.388 232.059 874.349 266.551 874.349H1015.99C1050.49 874.349 1078.45 846.388 1078.45 811.896V62.4535C1078.45 27.9614 1050.49 0 1015.99 0Z" fill="#0F1117"/>
<g filter="url(#filter0_d_770_6690)">
<path d="M911.219 61.2045H68.6779C51.4437 61.2045 37.4727 75.1852 37.4727 92.4312V248.565C37.4727 265.811 51.4437 279.792 68.6779 279.792H911.219C928.453 279.792 942.424 265.811 942.424 248.565V92.4312C942.424 75.1852 928.453 61.2045 911.219 61.2045Z" fill="#212734"/>
</g>
<path d="M468.106 111.167H305.838C295.498 111.167 287.115 119.556 287.115 129.903C287.115 140.251 295.498 148.639 305.838 148.639H468.106C478.446 148.639 486.829 140.251 486.829 129.903C486.829 119.556 478.446 111.167 468.106 111.167Z" fill="url(#paint0_linear_770_6690)" fill-opacity="0.7"/>
<path d="M580.444 192.357H305.838C295.498 192.357 287.115 200.745 287.115 211.093C287.115 221.44 295.498 229.829 305.838 229.829H580.444C590.785 229.829 599.168 221.44 599.168 211.093C599.168 200.745 590.785 192.357 580.444 192.357Z" fill="#3F4354"/>
<path d="M210.346 81.1895H91.6838C74.4377 81.1895 60.457 95.1702 60.457 112.416V231.078C60.457 248.324 74.4377 262.305 91.6838 262.305H210.346C227.592 262.305 241.572 248.324 241.572 231.078V112.416C241.572 95.1702 227.592 81.1895 210.346 81.1895Z" fill="url(#paint1_linear_770_6690)"/>
<path d="M136.789 192.232H149.279L149.417 187.423C149.417 181.103 153.401 179.454 159.035 177.668C164.685 176.06 169.659 172.657 173.204 167.972C176.749 163.287 178.672 157.575 178.682 151.7C178.806 148.113 178.184 144.539 176.855 141.205C175.526 137.871 173.52 134.849 170.962 132.33C168.405 129.812 165.353 127.852 161.999 126.574C158.645 125.296 155.062 124.729 151.478 124.907C147.689 124.824 143.924 125.512 140.409 126.929C136.895 128.345 133.704 130.461 131.032 133.147C128.36 135.834 126.261 139.035 124.863 142.557C123.465 146.079 122.796 149.848 122.899 153.636H135.814C135.765 151.544 136.134 149.464 136.899 147.517C137.665 145.57 138.811 143.795 140.271 142.297C141.731 140.799 143.475 139.607 145.402 138.791C147.328 137.976 149.398 137.553 151.49 137.548C153.377 137.438 155.265 137.736 157.026 138.422C158.787 139.107 160.38 140.163 161.697 141.519C163.013 142.874 164.022 144.498 164.656 146.278C165.289 148.059 165.532 149.954 165.367 151.837C165.284 154.884 164.225 157.824 162.345 160.223C160.465 162.623 157.864 164.355 154.925 165.165L150.391 166.963C145.952 168.033 142.076 170.73 139.532 174.522C136.987 178.313 135.959 182.922 136.651 187.436L136.789 192.232ZM142.971 221.922C144.195 221.966 145.414 221.764 146.558 221.328C147.701 220.892 148.746 220.231 149.63 219.384C150.513 218.538 151.219 217.523 151.703 216.399C152.188 215.275 152.443 214.065 152.452 212.842C152.441 211.619 152.185 210.411 151.7 209.288C151.214 208.166 150.509 207.152 149.625 206.307C148.742 205.462 147.697 204.802 146.555 204.367C145.412 203.932 144.194 203.73 142.971 203.773C141.749 203.73 140.531 203.932 139.388 204.367C138.245 204.802 137.201 205.462 136.318 206.307C135.434 207.152 134.729 208.166 134.243 209.288C133.758 210.411 133.502 211.619 133.491 212.842C133.5 214.065 133.755 215.275 134.24 216.399C134.724 217.523 135.429 218.538 136.313 219.384C137.197 220.231 138.242 220.892 139.385 221.328C140.529 221.764 141.748 221.966 142.971 221.922Z" fill="#212734"/>
<g filter="url(#filter1_d_770_6690)">
<path d="M1182.27 327.881H339.726C331.45 327.881 323.513 331.171 317.661 337.027C311.809 342.883 308.521 350.826 308.521 359.108V515.242C308.521 523.523 311.809 531.466 317.661 537.322C323.513 543.178 331.45 546.468 339.726 546.468H1182.27C1190.54 546.468 1198.48 543.178 1204.33 537.322C1210.18 531.466 1213.47 523.523 1213.47 515.242V359.108C1213.47 350.826 1210.18 342.883 1204.33 337.027C1198.48 331.171 1190.54 327.881 1182.27 327.881V327.881Z" fill="#212734"/>
</g>
<path d="M782.84 377.843H945.107C955.447 377.843 963.83 386.232 963.83 396.58C963.83 406.927 955.447 415.316 945.107 415.316H782.84C772.499 415.316 764.117 406.927 764.117 396.58C764.117 386.232 772.499 377.843 782.84 377.843Z" fill="url(#paint2_linear_770_6690)" fill-opacity="0.7"/>
<path d="M670.501 459.033H945.107C955.447 459.033 963.83 467.422 963.83 477.769C963.83 488.117 955.447 496.506 945.107 496.506H670.501C660.16 496.506 651.778 488.117 651.778 477.769C651.778 467.422 660.16 459.033 670.501 459.033Z" fill="#3F4354"/>
<path d="M1163.54 346.617H1044.96C1027.73 346.617 1013.76 360.598 1013.76 377.844V496.505C1013.76 513.751 1027.73 527.732 1044.96 527.732H1163.54C1180.78 527.732 1194.75 513.751 1194.75 496.505V377.844C1194.75 360.598 1180.78 346.617 1163.54 346.617Z" fill="url(#paint3_linear_770_6690)"/>
<path d="M1090.04 457.659H1102.52L1102.66 452.85C1102.66 446.53 1106.64 444.881 1112.27 443.095C1117.91 441.488 1122.88 438.084 1126.43 433.399C1129.97 428.714 1131.89 423.002 1131.9 417.127C1132.03 413.54 1131.4 409.966 1130.08 406.632C1128.75 403.298 1126.74 400.276 1124.19 397.758C1121.63 395.239 1118.58 393.279 1115.23 392.001C1111.88 390.724 1108.3 390.156 1104.72 390.335C1100.93 390.252 1097.17 390.94 1093.65 392.356C1090.14 393.773 1086.95 395.888 1084.28 398.575C1081.61 401.261 1079.52 404.462 1078.12 407.984C1076.72 411.506 1076.05 415.275 1076.16 419.063H1089.06C1089.01 416.972 1089.38 414.891 1090.15 412.944C1090.91 410.997 1092.06 409.223 1093.52 407.724C1094.98 406.226 1096.72 405.034 1098.64 404.219C1100.57 403.403 1102.64 402.98 1104.73 402.975C1106.61 402.866 1108.5 403.164 1110.26 403.849C1112.02 404.534 1113.61 405.591 1114.93 406.946C1116.24 408.302 1117.25 409.925 1117.88 411.706C1118.52 413.486 1118.76 415.382 1118.6 417.264C1118.51 420.312 1117.45 423.251 1115.58 425.651C1113.7 428.05 1111.1 429.782 1108.16 430.592L1103.63 432.391C1099.19 433.46 1095.32 436.158 1092.78 439.949C1090.24 443.741 1089.21 448.35 1089.9 452.863L1090.04 457.659ZM1096.22 487.35C1097.44 487.393 1098.66 487.191 1099.8 486.755C1100.94 486.319 1101.99 485.658 1102.87 484.812C1103.75 483.965 1104.46 482.95 1104.94 481.826C1105.43 480.702 1105.68 479.493 1105.69 478.269C1105.68 477.046 1105.42 475.838 1104.94 474.716C1104.45 473.593 1103.75 472.58 1102.86 471.734C1101.98 470.889 1100.94 470.23 1099.8 469.794C1098.65 469.359 1097.44 469.157 1096.22 469.201C1094.99 469.157 1093.78 469.359 1092.63 469.794C1091.49 470.23 1090.45 470.889 1089.57 471.734C1088.68 472.58 1087.98 473.593 1087.49 474.716C1087.01 475.838 1086.75 477.046 1086.74 478.269C1086.75 479.493 1087.01 480.702 1087.49 481.826C1087.97 482.95 1088.68 483.965 1089.56 484.812C1090.45 485.658 1091.49 486.319 1092.63 486.755C1093.77 487.191 1094.99 487.393 1096.22 487.35Z" fill="#212734"/>
<g filter="url(#filter2_d_770_6690)">
<path d="M68.6779 598.929H911.219C919.495 598.929 927.432 602.219 933.285 608.075C939.137 613.932 942.424 621.874 942.424 630.156V786.29C942.424 794.572 939.137 802.514 933.285 808.371C927.432 814.227 919.495 817.517 911.219 817.517H68.6779C60.4017 817.517 52.4646 814.227 46.6125 808.371C40.7603 802.514 37.4727 794.572 37.4727 786.29V630.156C37.4727 621.874 40.7603 613.932 46.6125 608.075C52.4646 602.219 60.4017 598.929 68.6779 598.929V598.929Z" fill="#212734"/>
</g>
<path d="M468.106 648.893H305.838C295.498 648.893 287.115 657.281 287.115 667.629C287.115 677.977 295.498 686.365 305.838 686.365H468.106C478.446 686.365 486.829 677.977 486.829 667.629C486.829 657.281 478.446 648.893 468.106 648.893Z" fill="url(#paint4_linear_770_6690)" fill-opacity="0.7"/>
<path d="M580.444 730.083H305.838C295.498 730.083 287.115 738.471 287.115 748.819C287.115 759.167 295.498 767.555 305.838 767.555H580.444C590.785 767.555 599.168 759.167 599.168 748.819C599.168 738.471 590.785 730.083 580.444 730.083Z" fill="#3F4354"/>
<path d="M205.98 617.665H87.4005C70.1664 617.665 56.1953 631.646 56.1953 648.892V767.554C56.1953 784.8 70.1664 798.78 87.4005 798.78H205.98C223.215 798.78 237.186 784.8 237.186 767.554V648.892C237.186 631.646 223.215 617.665 205.98 617.665Z" fill="url(#paint5_linear_770_6690)"/>
<path d="M132.472 728.708H144.954L145.092 723.899C145.092 717.578 149.074 715.93 154.703 714.144C160.35 712.536 165.32 709.132 168.863 704.447C172.405 699.762 174.327 694.05 174.337 688.175C174.461 684.588 173.839 681.015 172.511 677.681C171.183 674.347 169.178 671.325 166.623 668.806C164.067 666.288 161.017 664.328 157.665 663.05C154.314 661.772 150.733 661.204 147.151 661.383C143.366 661.3 139.602 661.988 136.09 663.404C132.578 664.821 129.39 666.936 126.72 669.623C124.049 672.309 121.952 675.511 120.555 679.032C119.158 682.554 118.49 686.324 118.592 690.111H131.499C131.45 688.02 131.818 685.94 132.583 683.993C133.348 682.046 134.493 680.271 135.952 678.773C137.411 677.274 139.154 676.082 141.079 675.267C143.005 674.451 145.073 674.029 147.164 674.023C149.049 673.914 150.936 674.212 152.696 674.897C154.456 675.583 156.047 676.639 157.363 677.995C158.679 679.35 159.687 680.973 160.32 682.754C160.953 684.534 161.196 686.43 161.031 688.313C160.948 691.36 159.889 694.3 158.011 696.699C156.132 699.098 153.533 700.831 150.596 701.64L146.065 703.439C141.629 704.509 137.756 707.206 135.214 710.998C132.671 714.789 131.643 719.398 132.335 723.911L132.472 728.708ZM138.651 758.398C139.873 758.442 141.092 758.239 142.235 757.803C143.377 757.367 144.421 756.707 145.305 755.86C146.188 755.014 146.892 753.998 147.377 752.875C147.861 751.751 148.116 750.541 148.125 749.317C148.114 748.095 147.858 746.886 147.373 745.764C146.888 744.642 146.183 743.628 145.3 742.783C144.417 741.937 143.374 741.278 142.232 740.843C141.09 740.408 139.872 740.206 138.651 740.249C137.43 740.206 136.212 740.408 135.07 740.843C133.928 741.278 132.885 741.937 132.002 742.783C131.119 743.628 130.414 744.642 129.929 745.764C129.444 746.886 129.188 748.095 129.177 749.317C129.186 750.541 129.441 751.751 129.925 752.875C130.409 753.998 131.114 755.014 131.997 755.86C132.881 756.707 133.924 757.367 135.067 757.803C136.21 758.239 137.429 758.442 138.651 758.398Z" fill="#212734"/>
<defs>
<filter id="filter0_d_770_6690" x="0.000541687" y="42.4684" width="979.895" height="293.532" filterUnits="userSpaceOnUse" color-interpolation-filters="sRGB">
<feFlood flood-opacity="0" result="BackgroundImageFix"/>
<feColorMatrix in="SourceAlpha" type="matrix" values="0 0 0 0 0 0 0 0 0 0 0 0 0 0 0 0 0 0 127 0" result="hardAlpha"/>
<feOffset dy="18.7361"/>
<feGaussianBlur stdDeviation="18.7361"/>
<feColorMatrix type="matrix" values="0 0 0 0 0 0 0 0 0 0 0 0 0 0 0 0 0 0 0.161 0"/>
<feBlend mode="normal" in2="BackgroundImageFix" result="effect1_dropShadow_770_6690"/>
<feBlend mode="normal" in="SourceGraphic" in2="effect1_dropShadow_770_6690" result="shape"/>
</filter>
<filter id="filter1_d_770_6690" x="271.049" y="309.145" width="979.895" height="293.532" filterUnits="userSpaceOnUse" color-interpolation-filters="sRGB">
<feFlood flood-opacity="0" result="BackgroundImageFix"/>
<feColorMatrix in="SourceAlpha" type="matrix" values="0 0 0 0 0 0 0 0 0 0 0 0 0 0 0 0 0 0 127 0" result="hardAlpha"/>
<feOffset dy="18.7361"/>
<feGaussianBlur stdDeviation="18.7361"/>
<feColorMatrix type="matrix" values="0 0 0 0 0 0 0 0 0 0 0 0 0 0 0 0 0 0 0.161 0"/>
<feBlend mode="normal" in2="BackgroundImageFix" result="effect1_dropShadow_770_6690"/>
<feBlend mode="normal" in="SourceGraphic" in2="effect1_dropShadow_770_6690" result="shape"/>
</filter>
<filter id="filter2_d_770_6690" x="0.000541687" y="580.193" width="979.895" height="293.532" filterUnits="userSpaceOnUse" color-interpolation-filters="sRGB">
<feFlood flood-opacity="0" result="BackgroundImageFix"/>
<feColorMatrix in="SourceAlpha" type="matrix" values="0 0 0 0 0 0 0 0 0 0 0 0 0 0 0 0 0 0 127 0" result="hardAlpha"/>
<feOffset dy="18.7361"/>
<feGaussianBlur stdDeviation="18.7361"/>
<feColorMatrix type="matrix" values="0 0 0 0 0 0 0 0 0 0 0 0 0 0 0 0 0 0 0.161 0"/>
<feBlend mode="normal" in2="BackgroundImageFix" result="effect1_dropShadow_770_6690"/>
<feBlend mode="normal" in="SourceGraphic" in2="effect1_dropShadow_770_6690" result="shape"/>
</filter>
<linearGradient id="paint0_linear_770_6690" x1="467.014" y1="117.605" x2="313.988" y2="159.232" gradientUnits="userSpaceOnUse">
<stop stop-color="#171C23" stop-opacity="0.58"/>
<stop offset="1" stop-color="#13161C"/>
</linearGradient>
<linearGradient id="paint1_linear_770_6690" x1="33.7609" y1="81.1895" x2="250.191" y2="93.3659" gradientUnits="userSpaceOnUse">
<stop stop-color="#FF7000"/>
<stop offset="0.9999" stop-color="#E2985E"/>
<stop offset="1" stop-color="#E2995F"/>
</linearGradient>
<linearGradient id="paint2_linear_770_6690" x1="783.932" y1="384.281" x2="936.957" y2="425.908" gradientUnits="userSpaceOnUse">
<stop stop-color="#171C23" stop-opacity="0.58"/>
<stop offset="1" stop-color="#13161C"/>
</linearGradient>
<linearGradient id="paint3_linear_770_6690" x1="987.082" y1="346.617" x2="1203.36" y2="358.777" gradientUnits="userSpaceOnUse">
<stop stop-color="#FF7000"/>
<stop offset="0.9999" stop-color="#E2985E"/>
<stop offset="1" stop-color="#E2995F"/>
</linearGradient>
<linearGradient id="paint4_linear_770_6690" x1="467.014" y1="655.33" x2="313.988" y2="696.957" gradientUnits="userSpaceOnUse">
<stop stop-color="#171C23" stop-opacity="0.58"/>
<stop offset="1" stop-color="#13161C"/>
</linearGradient>
<linearGradient id="paint5_linear_770_6690" x1="29.5175" y1="617.665" x2="245.799" y2="629.825" gradientUnits="userSpaceOnUse">
<stop stop-color="#FF7000"/>
<stop offset="0.9999" stop-color="#E2985E"/>
<stop offset="1" stop-color="#E2995F"/>
</linearGradient>
</defs>
</svg>
