<svg width="295" height="201" viewBox="0 0 295 201" fill="none" xmlns="http://www.w3.org/2000/svg">
<mask id="mask0_111638_6343" style="mask-type:luminance" maskUnits="userSpaceOnUse" x="7" y="53" width="270" height="148">
<path d="M276.649 53.6888H7.03711V200.447H276.649V53.6888Z" fill="white"/>
</mask>
<g mask="url(#mask0_111638_6343)">
<path d="M276.65 160.995C276.665 162.195 276.442 163.386 275.993 164.499C275.544 165.613 274.878 166.626 274.034 167.48C273.19 168.334 272.185 169.011 271.077 169.474C269.969 169.937 268.78 170.175 267.58 170.174H202.798C203.739 171.894 204.098 173.873 203.82 175.814C203.542 177.754 202.642 179.553 201.256 180.94C200.727 181.466 200.136 181.928 199.497 182.314H211.464C216.47 182.314 220.707 186.264 220.771 191.262C220.786 192.462 220.562 193.653 220.113 194.766C219.663 195.879 218.998 196.892 218.154 197.747C217.311 198.601 216.306 199.279 215.198 199.742C214.09 200.205 212.902 200.444 211.701 200.445H152.215C150.23 200.445 148.299 199.793 146.72 198.591C145.141 197.389 144 195.702 143.472 193.789C142.944 191.876 143.058 189.842 143.797 188.001C144.537 186.159 145.86 184.61 147.564 183.593H111.929C106.923 183.593 102.687 179.643 102.622 174.644C102.601 173.026 103.014 171.431 103.818 170.026C104.622 168.621 105.788 167.457 107.194 166.655C105.721 165.89 104.486 164.736 103.624 163.318C102.762 161.9 102.307 160.272 102.307 158.613V147.51C102.306 146.092 102.637 144.694 103.276 143.428C103.914 142.162 104.841 141.063 105.982 140.221H41.9445C36.9436 140.221 32.712 136.281 32.6377 131.287C32.6199 130.086 32.8414 128.892 33.2894 127.776C33.7374 126.661 34.4029 125.646 35.2471 124.79C36.0914 123.933 37.0976 123.254 38.2071 122.79C39.3166 122.327 40.5073 122.088 41.7099 122.089H46.2358C48.0941 122.089 49.8764 121.351 51.1904 120.037C52.5045 118.724 53.2427 116.942 53.2427 115.085V115.079C53.2427 113.222 52.5045 111.44 51.1904 110.127C49.8764 108.813 48.0941 108.075 46.2358 108.075H16.1087C13.7038 108.075 11.3974 107.12 9.69689 105.421C7.99636 103.721 7.04102 101.415 7.04102 99.0113C7.04102 96.6073 7.99636 94.3018 9.69689 92.602C11.3974 90.9021 13.7038 89.9472 16.1087 89.9472H59.6683C62.0732 89.9478 64.3798 88.9934 66.0808 87.294C67.7818 85.5946 68.7377 83.2894 68.7383 80.8854C68.7389 78.4815 67.7842 76.1757 66.0841 74.4754C64.384 72.7752 62.0779 71.8196 59.673 71.819H47.2313C42.2206 71.819 37.9837 67.8593 37.9298 62.8511C37.9167 61.6524 38.1417 60.463 38.5917 59.3518C39.0416 58.2406 39.7077 57.2296 40.5512 56.3775C41.3947 55.5253 42.3989 54.8489 43.5058 54.3874C44.6126 53.9258 45.8 53.6884 46.9993 53.6887H129.733C134.605 53.6887 138.788 57.4367 139.023 62.3069C139.103 63.9137 138.755 65.513 138.013 66.941H244.715C247.12 66.941 249.426 67.896 251.127 69.5958C252.827 71.2957 253.783 73.6012 253.783 76.0051C253.783 78.4091 252.827 80.7145 251.127 82.4144C249.426 84.1142 247.12 85.0692 244.715 85.0692H205.192C205.19 87.0197 204.415 88.8897 203.035 90.2692C201.656 91.6486 199.785 92.4247 197.834 92.4271H153.284C154.604 93.673 155.52 95.2865 155.912 97.0585C156.304 98.8305 156.155 100.679 155.484 102.366C154.813 104.052 153.651 105.498 152.148 106.517C150.645 107.535 148.871 108.079 147.056 108.078H134.599C134.109 108.077 133.623 108.173 133.17 108.36C132.716 108.547 132.305 108.822 131.957 109.168C131.61 109.514 131.335 109.925 131.147 110.378C130.959 110.831 130.862 111.316 130.862 111.806V111.811C130.862 112.302 130.959 112.787 131.147 113.24C131.335 113.692 131.61 114.104 131.957 114.45C132.305 114.796 132.716 115.071 133.17 115.258C133.623 115.445 134.109 115.54 134.599 115.54H235.713C238.118 115.54 240.425 116.495 242.125 118.194C243.826 119.894 244.781 122.2 244.781 124.604C244.781 127.008 243.826 129.313 242.125 131.013C240.425 132.713 238.118 133.668 235.713 133.668H209.564C210.89 134.479 211.986 135.617 212.746 136.972C213.506 138.328 213.905 139.856 213.905 141.41V143.995C213.906 145.658 213.448 147.289 212.582 148.71C211.717 150.13 210.477 151.285 208.998 152.047H267.343C272.348 152.047 276.585 155.997 276.65 160.995" fill="#151821"/>
</g>
<path d="M221.271 54.3806V65.5436" stroke="#3F4354" stroke-width="2" stroke-miterlimit="10" stroke-linecap="round"/>
<path d="M215.688 59.9622H226.855" stroke="#3F4354" stroke-width="2" stroke-miterlimit="10" stroke-linecap="round"/>
<path d="M79.25 1V10.8597" stroke="#3F4354" stroke-width="2" stroke-miterlimit="10" stroke-linecap="round"/>
<path d="M74.3184 5.92981H84.182" stroke="#3F4354" stroke-width="2" stroke-miterlimit="10" stroke-linecap="round"/>
<path d="M261.787 9.95746C261.787 11.2549 261.402 12.5233 260.681 13.6021C259.96 14.6808 258.935 15.5217 257.736 16.0182C256.537 16.5146 255.217 16.6445 253.944 16.3914C252.671 16.1382 251.502 15.5134 250.584 14.5959C249.666 13.6784 249.041 12.5095 248.788 11.2369C248.535 9.96438 248.665 8.64537 249.162 7.4467C249.659 6.24802 250.5 5.22353 251.579 4.50277C252.658 3.78201 253.927 3.39736 255.225 3.39746C256.087 3.39746 256.94 3.56714 257.737 3.89682C258.533 4.2265 259.256 4.70971 259.866 5.31887C260.475 5.92803 260.958 6.6512 261.288 7.4471C261.618 8.24299 261.787 9.09601 261.787 9.95746Z" stroke="#3F4354" stroke-width="2" stroke-miterlimit="10"/>
<path d="M17.883 154.938C17.8835 156.235 17.4991 157.504 16.7783 158.583C16.0574 159.662 15.0327 160.503 13.8335 161C12.6344 161.497 11.3147 161.627 10.0415 161.375C8.76832 161.122 7.59873 160.497 6.68069 159.58C5.76266 158.662 5.13741 157.493 4.88404 156.221C4.63067 154.948 4.76055 153.629 5.25726 152.43C5.75398 151.231 6.5952 150.207 7.67454 149.486C8.75388 148.765 10.0228 148.38 11.3209 148.38C13.0609 148.381 14.7296 149.071 15.9602 150.301C17.1907 151.531 17.8823 153.198 17.883 154.938Z" stroke="#3F4354" stroke-width="2" stroke-miterlimit="10"/>
<path d="M283.456 141.222C283.456 141.85 283.27 142.464 282.921 142.986C282.572 143.508 282.076 143.915 281.495 144.155C280.915 144.396 280.276 144.458 279.66 144.336C279.044 144.213 278.478 143.911 278.034 143.467C277.59 143.023 277.287 142.457 277.165 141.841C277.042 141.225 277.105 140.587 277.345 140.007C277.586 139.427 277.993 138.931 278.515 138.582C279.037 138.233 279.651 138.047 280.279 138.047C281.122 138.047 281.93 138.381 282.526 138.977C283.122 139.572 283.456 140.38 283.456 141.222Z" stroke="#3F4354" stroke-width="2" stroke-miterlimit="10"/>
<path d="M40.8432 128.451C40.8431 129.079 40.6567 129.693 40.3076 130.215C39.9585 130.737 39.4624 131.144 38.882 131.384C38.3016 131.625 37.663 131.688 37.0469 131.565C36.4307 131.442 35.8648 131.14 35.4206 130.696C34.9764 130.252 34.6739 129.686 34.5513 129.07C34.4287 128.455 34.4916 127.816 34.7319 127.236C34.9723 126.656 35.3793 126.16 35.9016 125.811C36.4239 125.462 37.038 125.276 37.6662 125.276C38.5088 125.276 39.3168 125.61 39.9126 126.206C40.5084 126.801 40.8432 127.609 40.8432 128.451Z" stroke="#3F4354" stroke-width="2" stroke-miterlimit="10"/>
<path d="M117.252 126.636C118.517 126.77 119.651 125.853 119.784 124.588C119.918 123.324 119.001 122.191 117.736 122.057C116.471 121.924 115.337 122.841 115.204 124.105C115.07 125.37 115.987 126.503 117.252 126.636Z" fill="url(#paint0_linear_111638_6343)"/>
<path d="M92.6269 175.394C89.8784 175.391 87.2081 174.479 85.0326 172.8C82.8572 171.121 81.2989 168.769 80.601 166.112L67.2765 115.371L63.6728 101.617L61.2998 92.5898C60.4606 89.4003 60.9233 86.0083 62.586 83.1598C64.2487 80.3113 66.9752 78.2397 70.1659 77.4007L139.113 59.3109C139.254 60.7073 139.468 62.0955 139.753 63.4698C140.8 68.4448 143.801 73.273 146.451 77.5325C146.91 78.2697 147.355 78.9852 147.776 79.6804C149.576 82.6419 150.775 84.9605 150.775 86.6565C150.775 88.4724 149.801 90.6852 148.769 93.0271L148.43 93.7991C146.81 97.5253 145.512 101.111 147.411 104.04C148.276 105.372 149.176 106.546 149.971 107.581C152.118 110.383 153.812 112.592 153.469 116.004C153.3 117.402 153.022 118.784 152.639 120.138C151.875 123.11 151.153 125.914 153.318 128.803C154.451 130.192 155.761 131.428 157.215 132.477C159.47 134.249 161.251 135.647 160.833 138.019C160.393 139.887 159.77 141.707 158.973 143.453C157.7 146.555 156.258 150.071 156.408 153.305C156.475 154.752 156.644 156.601 156.923 158.946L95.7951 174.983C94.7616 175.255 93.6976 175.393 92.629 175.394" fill="#151821"/>
<path d="M92.6269 175.394C89.8784 175.391 87.2081 174.479 85.0326 172.8C82.8572 171.121 81.2989 168.769 80.601 166.112L67.2765 115.371L63.6728 101.617L61.2998 92.5898C60.4606 89.4003 60.9233 86.0083 62.586 83.1598C64.2487 80.3113 66.9752 78.2397 70.1659 77.4007L139.113 59.3109C139.254 60.7073 139.468 62.0955 139.753 63.4698C140.8 68.4448 143.801 73.273 146.451 77.5325C146.91 78.2697 147.355 78.9852 147.776 79.6804C149.576 82.6419 150.775 84.9605 150.775 86.6565C150.775 88.4724 149.801 90.6852 148.769 93.0271L148.43 93.7991C146.81 97.5253 145.512 101.111 147.411 104.04C148.276 105.372 149.176 106.546 149.971 107.581C152.118 110.383 153.812 112.592 153.469 116.004C153.3 117.402 153.022 118.784 152.639 120.138C151.875 123.11 151.153 125.914 153.318 128.803C154.451 130.192 155.761 131.428 157.215 132.477C159.47 134.249 161.251 135.647 160.833 138.019C160.393 139.887 159.77 141.707 158.973 143.453C157.7 146.555 156.258 150.071 156.408 153.305C156.475 154.752 156.644 156.601 156.923 158.946L95.7951 174.983C94.7616 175.255 93.6976 175.393 92.629 175.394" stroke="#3F4354" stroke-width="2"/>
<path d="M63.7773 102.047L147.949 79.9636C149.654 82.7897 150.778 85.0154 150.778 86.6564C150.778 88.4723 149.803 90.6851 148.771 93.0281L148.519 93.6024L67.164 114.942L63.7773 102.047Z" fill="#212734" stroke="#3F4354" stroke-width="2"/>
<path d="M120.47 118.957L84.4102 128.418L87.7408 141.103L123.8 131.642L120.47 118.957Z" fill="#212734" stroke="#3F4354" stroke-width="2"/>
<path d="M110.36 157.517L94.6113 161.649L95.2572 164.109L111.006 159.976L110.36 157.517Z" fill="#212734" stroke="#3F4354"/>
<path d="M110.043 158.058L110.464 159.662L95.5719 163.568L95.1515 161.966L110.043 158.058ZM110.675 156.977L94.0703 161.335L94.9407 164.651L111.545 160.293L110.675 156.977Z" stroke="#3F4354"/>
<path d="M135.213 150.739L119.469 154.873L120.115 157.332L135.86 153.198L135.213 150.739Z" fill="#212734" stroke="#3F4354" stroke-width="0.999802"/>
<path d="M134.901 151.281L135.321 152.885L120.429 156.792L120.009 155.189L134.901 151.281ZM135.532 150.2L118.928 154.559L119.798 157.874L136.402 153.516L135.532 150.2Z" stroke="#3F4354"/>
<path d="M244.546 195.941C244.218 195.941 243.887 195.928 243.553 195.903L166.811 189.838C167.303 187.615 167.74 185.872 168.14 184.525C169.008 181.61 171.459 178.844 173.621 176.402C174.993 174.969 176.218 173.404 177.278 171.728C178.713 169.163 177.231 166.846 175.661 164.394C174.675 162.99 173.877 161.464 173.289 159.853C172.325 156.817 173.748 154.68 175.395 152.206C176.23 151.017 176.97 149.765 177.609 148.46C179.207 145.033 178.286 142.24 177.12 138.703C176.697 137.42 176.258 136.093 175.888 134.585C175.164 131.619 177.428 128.861 180.015 126.061L180.579 125.454C182.396 123.508 184.109 121.671 184.766 119.779C185.396 117.977 185.041 115.363 184.262 111.73C184.093 110.931 183.907 110.103 183.716 109.251C182.634 104.429 181.41 98.9661 182.04 94.0788C182.227 92.6726 182.488 91.2772 182.823 89.8987L251.501 95.3266C254.789 95.5911 257.838 97.148 259.979 99.6559C262.121 102.164 263.18 105.418 262.925 108.705L256.936 184.484C256.677 187.596 255.261 190.498 252.968 192.619C250.675 194.74 247.67 195.925 244.546 195.941" fill="#151821"/>
<path d="M244.546 195.941C244.218 195.941 243.887 195.928 243.553 195.903L166.811 189.838C167.303 187.615 167.74 185.872 168.14 184.525C169.008 181.61 171.459 178.844 173.621 176.402C174.993 174.969 176.218 173.404 177.278 171.728C178.713 169.163 177.231 166.846 175.661 164.394C174.675 162.99 173.877 161.464 173.289 159.853C172.325 156.817 173.748 154.68 175.395 152.206C176.23 151.017 176.97 149.765 177.609 148.46C179.207 145.033 178.286 142.24 177.12 138.703C176.697 137.42 176.258 136.093 175.888 134.585C175.164 131.619 177.428 128.861 180.015 126.061L180.579 125.454C182.396 123.508 184.109 121.671 184.766 119.779C185.396 117.977 185.041 115.363 184.262 111.73C184.093 110.931 183.907 110.103 183.716 109.251C182.634 104.429 181.41 98.9661 182.04 94.0788C182.227 92.6726 182.488 91.2772 182.823 89.8987L251.501 95.3266C254.789 95.5911 257.838 97.148 259.979 99.6559C262.121 102.164 263.18 105.418 262.925 108.705L256.936 184.484C256.677 187.596 255.261 190.498 252.968 192.619C250.675 194.74 247.67 195.925 244.546 195.941" stroke="#3F4354" stroke-width="2"/>
<path d="M180.637 125.392C182.429 123.47 184.114 121.651 184.766 119.78C185.362 118.074 185.078 115.643 184.385 112.309L262.155 118.451L261.102 131.753L180.637 125.392Z" fill="#212734" stroke="#3F4354" stroke-width="2"/>
<path d="M241.898 160.493C240.59 160.493 239.312 160.105 238.224 159.378C237.137 158.652 236.289 157.62 235.788 156.412C235.288 155.204 235.157 153.874 235.412 152.592C235.667 151.31 236.297 150.132 237.222 149.207C238.147 148.283 239.325 147.653 240.608 147.398C241.891 147.143 243.221 147.274 244.429 147.774C245.638 148.275 246.671 149.122 247.397 150.209C248.124 151.296 248.512 152.574 248.512 153.881C248.51 155.634 247.813 157.315 246.573 158.554C245.333 159.794 243.652 160.491 241.898 160.493Z" fill="#212734" stroke="#3F4354" stroke-width="2"/>
<path d="M230.838 159.457C229.53 159.457 228.251 159.069 227.164 158.343C226.076 157.616 225.228 156.584 224.728 155.376C224.227 154.168 224.097 152.839 224.352 151.557C224.607 150.274 225.237 149.096 226.162 148.172C227.087 147.247 228.265 146.618 229.548 146.363C230.831 146.108 232.16 146.238 233.369 146.739C234.577 147.239 235.61 148.086 236.337 149.173C237.064 150.26 237.451 151.538 237.452 152.846C237.45 154.599 236.752 156.279 235.512 157.519C234.272 158.758 232.591 159.455 230.838 159.457Z" fill="#212734" stroke="#3F4354" stroke-width="2"/>
<path d="M252.954 107.202C252.594 107.202 252.239 107.107 251.927 106.927C251.615 106.747 251.356 106.488 251.176 106.176C250.995 105.864 250.9 105.51 250.9 105.149C250.9 104.789 250.995 104.435 251.175 104.123L270.45 70.7505C270.63 70.4384 270.89 70.1792 271.202 69.999C271.514 69.8188 271.868 69.7239 272.229 69.7239C272.589 69.7239 272.944 69.8188 273.256 69.999C273.568 70.1792 273.827 70.4384 274.008 70.7505L293.283 104.123C293.463 104.435 293.558 104.789 293.558 105.149C293.558 105.51 293.463 105.864 293.282 106.176C293.102 106.488 292.843 106.747 292.53 106.927C292.218 107.107 291.864 107.202 291.503 107.202H252.954Z" fill="url(#paint1_linear_111638_6343)" stroke="#3F4354"/>
<path d="M272.229 70.1647C272.512 70.1629 272.79 70.2366 273.036 70.3781C273.281 70.5196 273.484 70.7239 273.624 70.9699L283.261 87.6552L292.899 104.342C293.041 104.586 293.116 104.864 293.116 105.147C293.116 105.43 293.042 105.708 292.9 105.953C292.759 106.198 292.555 106.401 292.31 106.542C292.065 106.683 291.787 106.757 291.504 106.757H252.955C252.672 106.757 252.394 106.683 252.148 106.542C251.903 106.401 251.699 106.198 251.558 105.953C251.416 105.708 251.342 105.43 251.342 105.147C251.342 104.864 251.417 104.586 251.559 104.342L261.197 87.6552L270.834 70.9699C270.974 70.7239 271.177 70.5196 271.422 70.3781C271.668 70.2366 271.946 70.1629 272.23 70.1647M272.23 69.2796C271.791 69.2771 271.359 69.3914 270.979 69.6107C270.599 69.83 270.285 70.1463 270.067 70.5273L260.429 87.2153L250.792 103.902C250.572 104.281 250.457 104.712 250.457 105.15C250.457 105.588 250.573 106.018 250.792 106.398C251.011 106.777 251.326 107.092 251.706 107.311C252.086 107.53 252.517 107.645 252.955 107.644H291.503C291.941 107.645 292.372 107.529 292.752 107.31C293.131 107.092 293.446 106.777 293.666 106.397C293.885 106.018 294 105.587 294 105.149C294 104.711 293.885 104.281 293.666 103.902L284.028 87.2153L274.391 70.5279C274.174 70.1469 273.859 69.8305 273.479 69.6112C273.099 69.3919 272.667 69.2777 272.229 69.2801" stroke="#3F4354"/>
<path d="M56.8281 59.3701L62.5665 69.0835" stroke="#3F4354"/>
<path d="M56.8281 59.3701L62.5665 69.0835" stroke="#3F4354" stroke-width="2" stroke-miterlimit="10" stroke-linecap="round"/>
<path d="M44.3027 74.8024L55.0472 78.2515" stroke="#3F4354"/>
<path d="M44.3027 74.8024L55.0472 78.2515" stroke="#3F4354" stroke-width="2" stroke-miterlimit="10" stroke-linecap="round"/>
<path d="M45.1973 94.6547L55.5202 90.0968" stroke="#3F4354"/>
<path d="M45.1973 94.6547L55.5202 90.0968" stroke="#3F4354" stroke-width="2" stroke-miterlimit="10" stroke-linecap="round"/>
<path d="M272.226 102.328C272.971 102.328 273.576 101.724 273.576 100.979C273.576 100.233 272.971 99.6285 272.226 99.6285C271.48 99.6285 270.875 100.233 270.875 100.979C270.875 101.724 271.48 102.328 272.226 102.328Z" fill="#3F4354"/>
<path d="M273.576 80.0565C273.576 79.3109 272.971 78.7065 272.225 78.7065C271.48 78.7065 270.875 79.3109 270.875 80.0565V95.5787C270.875 96.3242 271.48 96.9286 272.225 96.9286C272.971 96.9286 273.576 96.3242 273.576 95.5787V80.0565Z" fill="#3F4354"/>
<defs>
<linearGradient id="paint0_linear_111638_6343" x1="114.77" y1="121.744" x2="120.211" y2="122.63" gradientUnits="userSpaceOnUse">
<stop stop-color="#FF7000"/>
<stop offset="0.9999" stop-color="#E2985E"/>
<stop offset="1" stop-color="#E2995F"/>
</linearGradient>
<linearGradient id="paint1_linear_111638_6343" x1="244.613" y1="69.7239" x2="295.54" y2="72.985" gradientUnits="userSpaceOnUse">
<stop stop-color="#FF7000"/>
<stop offset="0.9999" stop-color="#E2985E"/>
<stop offset="1" stop-color="#E2995F"/>
</linearGradient>
</defs>
</svg>
