<svg width="20" height="20" viewBox="0 0 20 20" fill="none" xmlns="http://www.w3.org/2000/svg">
<path fill-rule="evenodd" clip-rule="evenodd" d="M19.5421 10.2271C19.5421 9.51813 19.4783 8.83613 19.3606 8.18213H9.9707V12.0501H15.3367C15.1054 13.3001 14.4025 14.3591 13.3466 15.0681V17.5771H16.569C18.4543 15.8361 19.5421 13.2731 19.5421 10.2271Z" fill="#4285F4"/>
<path fill-rule="evenodd" clip-rule="evenodd" d="M9.97051 19.9999C12.6625 19.9999 14.9187 19.1049 16.5688 17.5779L13.3464 15.0689C12.4541 15.6689 11.3115 16.0229 9.97051 16.0229C7.37328 16.0229 5.17584 14.2639 4.39119 11.8999H1.06055V14.4909C2.70124 17.7589 6.07316 19.9999 9.97051 19.9999Z" fill="#34A853"/>
<path fill-rule="evenodd" clip-rule="evenodd" d="M4.39187 11.8998C4.19247 11.2998 4.07881 10.6588 4.07881 9.99979C4.07881 9.34079 4.19247 8.69979 4.39187 8.09979V5.50879H1.06043C0.385247 6.85879 0 8.38579 0 9.99979C0 11.6138 0.385247 13.1408 1.06043 14.4908L4.39187 11.8998Z" fill="#FBBC05"/>
<path fill-rule="evenodd" clip-rule="evenodd" d="M9.97051 3.97701C11.4341 3.97701 12.7482 4.48201 13.7811 5.47301L16.6416 2.605C14.9147 0.990996 12.6575 0 9.97051 0C6.07316 0 2.70124 2.241 1.06055 5.509L4.39119 8.10001C5.17584 5.73601 7.37328 3.97701 9.97051 3.97701Z" fill="#EA4335"/>
</svg>
