<svg width="32" height="32" viewBox="0 0 32 32" fill="none" xmlns="http://www.w3.org/2000/svg" style="color: #ff7000">
<path d="M14.2383 0C12.736 2.15616 14.2281 7.85675 14.5548 10.4416L15.8204 10.1252C15.4684 7.33992 15.798 2.28295 14.2383 0Z" fill="currentColor"/>
<path d="M18.3521 0.316559L16.1372 10.1254L17.4029 10.4418L19.3013 0.632972L18.3521 0.316559Z" fill="currentColor"/>
<path d="M9.17568 1.58195L12.6562 10.7579L6.64437 3.48042L5.37872 3.79684L11.3906 12.0236L2.84742 6.64455L2.53101 7.9102L11.0742 13.2892L12.6562 10.7579L14.2383 10.4415L10.4413 1.26553L9.17568 1.58195Z" fill="currentColor"/>
<path d="M22.4654 1.58206L17.7192 10.758C19.9267 11.0921 23.9614 3.29003 22.4654 1.58206Z" fill="currentColor"/>
<path d="M19.3015 12.0235C22.1479 11.4234 25.5816 7.06033 27.2118 4.74599C24.5568 4.52356 19.9835 9.59363 19.3015 12.0235Z" fill="currentColor"/>
<path d="M0.94947 10.7579L0.633057 11.7072C3.30909 13.1117 7.41957 14.4168 10.4419 14.5549C9.62273 12.1993 3.24182 11.2324 0.94947 10.7579Z" fill="currentColor"/>
<path d="M0 15.188V16.4536H10.1252V15.188H0Z" fill="currentColor"/>
<path d="M21.1995 16.4535L31.3247 16.1371V15.5042C29.3158 14.9104 21.9551 14.1769 21.1995 16.4535Z" fill="currentColor"/>
<path d="M20.8835 17.0865C21.7048 19.4466 28.0863 20.4096 30.3759 20.8835L30.6923 20.567V19.9342C27.999 18.5207 23.9251 17.2191 20.8835 17.0865Z" fill="currentColor"/>
<path d="M20.5667 18.352L19.9338 19.6177L28.477 24.9967L28.7934 23.731L20.5667 18.352Z" fill="currentColor"/>
<path d="M4.42969 26.895L4.7461 27.2114L12.34 20.5668C10.3012 18.6933 5.27948 25.0728 4.42969 26.895Z" fill="currentColor"/>
<path d="M20.8835 30.3756H22.1491L18.6686 20.5668H18.985C20.2827 23.0816 23.0506 26.9327 25.6297 28.1607L25.9461 27.8443C24.9227 25.5481 22.4581 22.2579 20.4755 20.6811C19.6302 20.0087 18.0294 20.1605 17.6271 21.3232C16.9126 23.3878 20.2991 28.2401 20.8835 30.3756Z" fill="currentColor"/>
<path d="M12.3398 20.5669C11.4555 22.6908 7.12779 28.1911 8.85923 30.0592L13.6054 20.8833L12.3398 20.5669Z" fill="currentColor"/>
<path d="M13.9222 21.1996L12.3401 31.3248C15.2466 30.4746 13.6355 23.7528 15.8206 21.8325C15.8206 23.8575 15.5276 30.6838 17.7191 31.3248C17.7177 29.2881 18.1307 23.315 16.7611 21.778C16.206 21.155 14.6923 21.2833 13.9222 21.1996Z" fill="currentColor"/>
</svg>
